<svg width="32" height="32" xmlns="http://www.w3.org/2000/svg" xml:space="preserve" version="1.1">

 <g>
  <title>Layer 1</title>
  <path id="svg_1" fill="#F42F42" d="m-219,264.7l-3.4,-5.1l-3.5,5.1c-0.5,0.7 -0.9,1.2 -1.3,1.5c-0.4,0.3 -0.8,0.5 -1.3,0.5c-0.6,0 -1.1,-0.2 -1.5,-0.6c-0.4,-0.4 -0.6,-0.8 -0.6,-1.3c0,-0.5 0.3,-1.2 1,-2.1l4.3,-6.1l-3.8,-5.1c-0.7,-0.8 -1,-1.6 -1,-2.2c0,-0.5 0.2,-0.9 0.6,-1.3s0.9,-0.5 1.5,-0.5c0.6,0 1,0.2 1.4,0.5c0.4,0.3 0.8,0.8 1.3,1.5l3.1,4.2l3,-4.2c0.5,-0.7 0.9,-1.2 1.3,-1.5c0.4,-0.3 0.8,-0.5 1.4,-0.5c0.6,0 1.1,0.2 1.6,0.5c0.4,0.4 0.6,0.8 0.6,1.3c0,0.4 -0.1,0.7 -0.3,1c-0.2,0.3 -0.4,0.7 -0.8,1.2l-3.8,5.1l4.3,6.1c0.7,1 1,1.7 1,2.2c0,0.5 -0.2,0.9 -0.6,1.3s-0.9,0.5 -1.5,0.5c-0.5,0 -1,-0.2 -1.4,-0.5s-1.1,-0.8 -1.6,-1.5z" class="st0"/>
  <path enable-background="new" fill="#332E0A" opacity="0.2038" id="Combined-Shape" d="m-230.6,264.1c0.1,0.2 0.3,0.4 0.5,0.6c0.4,0.4 0.9,0.6 1.5,0.6c0.5,0 1,-0.2 1.3,-0.5c0.4,-0.3 0.8,-0.8 1.3,-1.5l3.5,-5.1l3.4,5.1c0.5,0.7 0.9,1.2 1.3,1.5s0.8,0.5 1.4,0.5c0.6,0 1.1,-0.2 1.5,-0.5c0.2,-0.2 0.3,-0.3 0.4,-0.5c0.1,0.3 0.2,0.5 0.2,0.7c0,0.5 -0.2,0.9 -0.6,1.3s-0.9,0.5 -1.5,0.5c-0.5,0 -1,-0.2 -1.4,-0.5s-0.8,-0.8 -1.3,-1.5l-3.4,-5.1l-3.5,5.1c-0.5,0.7 -0.9,1.2 -1.3,1.5c-0.4,0.3 -0.8,0.5 -1.3,0.5c-0.6,0 -1.1,-0.2 -1.5,-0.6c-0.4,-0.4 -0.6,-0.8 -0.6,-1.3c-0.1,-0.3 0,-0.5 0.1,-0.8z" class="st1"/>
  <path id="svg_2" stroke-linejoin="round" stroke="#0A2933" fill="none" d="m-219,264.7l-3.4,-5.1l-3.5,5.1c-0.5,0.7 -0.9,1.2 -1.3,1.5c-0.4,0.3 -0.8,0.5 -1.3,0.5c-0.6,0 -1.1,-0.2 -1.5,-0.6c-0.4,-0.4 -0.6,-0.8 -0.6,-1.3c0,-0.5 0.3,-1.2 1,-2.1l4.3,-6.1l-3.8,-5.1c-0.7,-0.8 -1,-1.6 -1,-2.2c0,-0.5 0.2,-0.9 0.6,-1.3s0.9,-0.5 1.5,-0.5c0.6,0 1,0.2 1.4,0.5c0.4,0.3 0.8,0.8 1.3,1.5l3.1,4.2l3,-4.2c0.5,-0.7 0.9,-1.2 1.3,-1.5c0.4,-0.3 0.8,-0.5 1.4,-0.5c0.6,0 1.1,0.2 1.6,0.5c0.4,0.4 0.6,0.8 0.6,1.3c0,0.4 -0.1,0.7 -0.3,1c-0.2,0.3 -0.4,0.7 -0.8,1.2l-3.8,5.1l4.3,6.1c0.7,1 1,1.7 1,2.2c0,0.5 -0.2,0.9 -0.6,1.3s-0.9,0.5 -1.5,0.5c-0.5,0 -1,-0.2 -1.4,-0.5s-1.1,-0.8 -1.6,-1.5z" class="st2"/>
  <path stroke-dasharray="1,2,6,2,3" stroke-linejoin="round" stroke-linecap="round" stroke="#FFFFFF" fill="none" id="Path-26" d="m-217.7,249.2l-2.2,3" class="st3"/>
  <g>
   <path fill="#F42F42" d="m11.59352,27.18633l-3.4,-5.1l-3.5,5.1c-0.5,0.7 -0.9,1.2 -1.3,1.5c-0.4,0.3 -0.8,0.5 -1.3,0.5c-0.6,0 -1.1,-0.2 -1.5,-0.6c-0.4,-0.4 -0.6,-0.8 -0.6,-1.3c0,-0.5 0.3,-1.2 1,-2.1l4.3,-6.1l-3.8,-5.1c-0.7,-0.8 -1,-1.6 -1,-2.2c0,-0.5 0.2,-0.9 0.6,-1.3s0.9,-0.5 1.5,-0.5c0.6,0 1,0.2 1.4,0.5c0.4,0.3 0.8,0.8 1.3,1.5l3.1,4.2l3,-4.2c0.5,-0.7 0.9,-1.2 1.3,-1.5c0.4,-0.3 0.8,-0.5 1.4,-0.5c0.6,0 1.1,0.2 1.6,0.5c0.4,0.4 0.6,0.8 0.6,1.3c0,0.4 -0.1,0.7 -0.3,1c-0.2,0.3 -0.4,0.7 -0.8,1.2l-3.8,5.1l4.3,6.1c0.7,1 1,1.7 1,2.2c0,0.5 -0.2,0.9 -0.6,1.3s-0.9,0.5 -1.5,0.5c-0.5,0 -1,-0.2 -1.4,-0.5s-1.1,-0.8 -1.6,-1.5z" class="st0"/>
   <path enable-background="new" fill="#332E0A" opacity="0.2038" id="svg_5" d="m-0.00648,26.58633c0.1,0.2 0.3,0.4 0.5,0.6c0.4,0.4 0.9,0.6 1.5,0.6c0.5,0 1,-0.2 1.3,-0.5c0.4,-0.3 0.8,-0.8 1.3,-1.5l3.5,-5.1l3.4,5.1c0.5,0.7 0.9,1.2 1.3,1.5s0.8,0.5 1.4,0.5c0.6,0 1.1,-0.2 1.5,-0.5c0.2,-0.2 0.3,-0.3 0.4,-0.5c0.1,0.3 0.2,0.5 0.2,0.7c0,0.5 -0.2,0.9 -0.6,1.3s-0.9,0.5 -1.5,0.5c-0.5,0 -1,-0.2 -1.4,-0.5s-0.8,-0.8 -1.3,-1.5l-3.4,-5.1l-3.5,5.1c-0.5,0.7 -0.9,1.2 -1.3,1.5c-0.4,0.3 -0.8,0.5 -1.3,0.5c-0.6,0 -1.1,-0.2 -1.5,-0.6c-0.4,-0.4 -0.6,-0.8 -0.6,-1.3c-0.1,-0.3 0,-0.5 0.1,-0.8z" class="st1"/>
   <path stroke-linejoin="round" stroke="#0A2933" fill="none" d="m11.59352,27.18633l-3.4,-5.1l-3.5,5.1c-0.5,0.7 -0.9,1.2 -1.3,1.5c-0.4,0.3 -0.8,0.5 -1.3,0.5c-0.6,0 -1.1,-0.2 -1.5,-0.6c-0.4,-0.4 -0.6,-0.8 -0.6,-1.3c0,-0.5 0.3,-1.2 1,-2.1l4.3,-6.1l-3.8,-5.1c-0.7,-0.8 -1,-1.6 -1,-2.2c0,-0.5 0.2,-0.9 0.6,-1.3s0.9,-0.5 1.5,-0.5c0.6,0 1,0.2 1.4,0.5c0.4,0.3 0.8,0.8 1.3,1.5l3.1,4.2l3,-4.2c0.5,-0.7 0.9,-1.2 1.3,-1.5c0.4,-0.3 0.8,-0.5 1.4,-0.5c0.6,0 1.1,0.2 1.6,0.5c0.4,0.4 0.6,0.8 0.6,1.3c0,0.4 -0.1,0.7 -0.3,1c-0.2,0.3 -0.4,0.7 -0.8,1.2l-3.8,5.1l4.3,6.1c0.7,1 1,1.7 1,2.2c0,0.5 -0.2,0.9 -0.6,1.3s-0.9,0.5 -1.5,0.5c-0.5,0 -1,-0.2 -1.4,-0.5s-1.1,-0.8 -1.6,-1.5z" class="st2"/>
   <path stroke-dasharray="1,2,6,2,3" stroke-linejoin="round" stroke-linecap="round" stroke="#FFFFFF" fill="none" id="svg_4" d="m12.89352,11.68633l-2.2,3" class="st3"/>
  </g>
  <g>
   <path fill="#20BAF7" d="m21.009,7.86363l0,6.4c0.5,-0.6 1.1,-1.1 1.6,-1.5c0.5,-0.4 1.1,-0.6 1.7,-0.8c0.6,-0.2 1.3,-0.3 2,-0.3c1.1,0 2.1,0.2 2.9,0.7s1.5,1.1 2,2c0.3,0.5 0.5,1.1 0.6,1.7c0.1,0.6 0.2,1.4 0.2,2.2l0,8.3c0,0.9 -0.2,1.5 -0.6,2c-0.4,0.4 -0.9,0.7 -1.6,0.7c-1.4,0 -2.1,-0.9 -2.1,-2.6l0,-7.3c0,-1.4 -0.2,-2.4 -0.6,-3.2c-0.4,-0.7 -1.2,-1.1 -2.3,-1.1c-0.8,0 -1.5,0.2 -2.1,0.7s-1.1,1 -1.4,1.8c-0.2,0.6 -0.3,1.8 -0.3,3.4l0,5.7c0,0.9 -0.2,1.5 -0.6,2c-0.4,0.4 -0.9,0.7 -1.6,0.7c-1.4,0 -2.1,-0.9 -2.1,-2.6l0,-18.7c0,-0.9 0.2,-1.5 0.6,-2c0.4,-0.4 0.9,-0.7 1.6,-0.7c0.7,0 1.2,0.2 1.6,0.7s0.5,1 0.5,1.8z" class="st0"/>
   <path fill="#2F9DC4" id="svg_9" d="m21.009,24.86363l0,1.7c0,0.9 -0.2,1.5 -0.6,2c-0.4,0.4 -0.9,0.7 -1.6,0.7c-1.4,0 -2.1,-0.9 -2.1,-2.6l0,-1.7c0,1.7 0.7,2.6 2.1,2.6c0.7,0 1.2,-0.2 1.6,-0.7s0.6,-1.1 0.6,-2z" class="st1"/>
   <path fill="#2F9DC4" id="svg_8" d="m32.109,24.86363l0,1.7c0,0.9 -0.2,1.5 -0.6,2c-0.4,0.4 -0.9,0.7 -1.6,0.7c-1.4,0 -2.1,-0.9 -2.1,-2.6l0,-1.7c0,1.7 0.7,2.6 2.1,2.6c0.7,0 1.2,-0.2 1.6,-0.7c0.4,-0.5 0.6,-1.1 0.6,-2z" class="st1"/>
   <path stroke-linejoin="round" stroke="#0A2933" fill="none" d="m21.009,7.86363l0,6.4c0.5,-0.6 1.1,-1.1 1.6,-1.5c0.5,-0.4 1.1,-0.6 1.7,-0.8c0.6,-0.2 1.3,-0.3 2,-0.3c1.1,0 2.1,0.2 2.9,0.7s1.5,1.1 2,2c0.3,0.5 0.5,1.1 0.6,1.7c0.1,0.6 0.2,1.4 0.2,2.2l0,8.3c0,0.9 -0.2,1.5 -0.6,2c-0.4,0.4 -0.9,0.7 -1.6,0.7c-1.4,0 -2.1,-0.9 -2.1,-2.6l0,-7.3c0,-1.4 -0.2,-2.4 -0.6,-3.2c-0.4,-0.7 -1.2,-1.1 -2.3,-1.1c-0.8,0 -1.5,0.2 -2.1,0.7s-1.1,1 -1.4,1.8c-0.2,0.6 -0.3,1.8 -0.3,3.4l0,5.7c0,0.9 -0.2,1.5 -0.6,2c-0.4,0.4 -0.9,0.7 -1.6,0.7c-1.4,0 -2.1,-0.9 -2.1,-2.6l0,-18.7c0,-0.9 0.2,-1.5 0.6,-2c0.4,-0.4 0.9,-0.7 1.6,-0.7c0.7,0 1.2,0.2 1.6,0.7s0.5,1 0.5,1.8z" class="st2"/>
   <path stroke-dasharray="1,2,6,2,3" stroke-linejoin="round" stroke-linecap="round" stroke="#FFFFFF" fill="none" id="svg_7" d="m18.209,8.76363l0,8.2" class="st3"/>
  </g>
 </g>
</svg>